<?xml version="1.0" encoding="UTF-8"?>
<svg version="1.1" xmlns="http://www.w3.org/2000/svg" width="2884" height="1212">
<path d="M0 0 C5.18407261 0.01254018 10.36814281 0.01828618 15.55222702 0.02360535 C67.42705376 0.0832579 119.23640639 0.62505176 171.05342484 3.27120972 C174.12208139 3.42671732 177.19099815 3.5767365 180.25991249 3.72705555 C201.29518349 4.76004481 222.31450091 5.99346117 243.32886887 7.38652039 C244.01793571 7.43202782 244.70700256 7.47753525 245.41695023 7.52442169 C324.07627472 12.72374025 402.56687931 20.24410845 766.83510971 71.95011139 C769.26677667 72.37565422 771.69861248 72.80021811 774.13050461 73.22447205 C855.9582256 87.50659034 937.40914786 104.02455313 1018.43998337 122.28633118 C1021.96345378 123.08005432 1025.48773562 123.87007998 1029.0124321 124.65834045 C1062.72288645 132.19891742 1096.33973212 140.08946114 1129.91621017 148.20481873 C1134.8321643 149.39169849 1139.74923518 150.57391685 1144.66629696 151.75619793 C1149.43371801 152.90297789 1154.20055454 154.05217136 1158.96719933 155.20217323 C1161.223375 155.74627477 1163.47970947 156.2897183 1165.73620796 156.83247948 C1168.83433397 157.57814268 1171.9316808 158.32695629 1175.02882004 159.07670593 C1175.94824387 159.29737732 1176.86766769 159.51804871 1177.81495285 159.7454071 C1178.64983734 159.94820786 1179.48472183 160.15100861 1180.34490585 160.35995483 C1181.07065402 160.53518016 1181.79640219 160.71040548 1182.54414272 160.89094067 C1184.32886887 161.38652039 1184.32886887 161.38652039 1186.32886887 162.38652039 C1185.70097185 170.5486245 1183.76103467 178.2484995 1181.73121262 186.15995789 C1181.373296 187.57464648 1181.01601211 188.98949528 1180.65932846 190.40449524 C1179.72562061 194.10347937 1178.78544289 197.80078314 1177.84321213 201.49760437 C1176.33054574 207.43431178 1174.82484655 213.37276836 1173.32484245 219.31268692 C1172.80066308 221.38251261 1172.27186554 223.45112006 1171.74267197 225.51966858 C1171.42556763 226.77172089 1171.10846329 228.02377319 1170.78174973 229.31376648 C1170.50052765 230.41691193 1170.21930557 231.52005737 1169.92956161 232.65663147 C1169.22141798 235.40897208 1169.22141798 235.40897208 1169.32886887 238.38652039 C1179.22886887 241.35652039 1189.12886887 244.32652039 1199.32886887 247.38652039 C1198.12631767 253.39927636 1196.98495944 258.95391048 1195.26588058 264.76396179 C1194.97283539 265.76101639 1194.97283539 265.76101639 1194.67387009 266.7782135 C1194.03954013 268.93274047 1193.39912926 271.08540469 1192.75855637 273.23808289 C1192.31262915 274.74825493 1191.86708921 276.25854139 1191.42191696 277.76893616 C1190.25855914 281.71223105 1189.09000371 285.65396641 1187.92029953 289.59538269 C1186.7238734 293.63028854 1185.53245156 297.66667131 1184.34058762 301.70292664 C1182.00819897 309.59889865 1179.67030845 317.49322759 1177.32886887 325.38652039 C1170.59646311 324.15534686 1164.10200044 322.54632987 1157.56324387 320.53495789 C1155.58363631 319.93695658 1153.60389199 319.33940785 1151.62403488 318.74223328 C1150.5662886 318.42175018 1149.50854233 318.10126709 1148.41874313 317.77107239 C1088.15099042 299.55379068 1027.30589314 283.11881597 966.4603157 266.95294189 C964.25174913 266.3660262 962.04332075 265.7785926 959.83491135 265.19108582 C884.28396338 245.0969281 808.50944192 225.9528581 732.32886887 208.38652039 C731.23158463 208.13349907 731.23158463 208.13349907 730.11213303 207.87536621 C684.40609578 197.34219589 638.59330915 187.33453956 592.65494156 177.86597443 C591.09759755 177.54497204 589.54029092 177.22378826 587.98302078 176.90242767 C507.10527716 160.21283025 425.86984221 145.37331745 210.57001209 115.1183176 C205.89938972 114.57270396 201.23029423 114.01537743 196.56177902 113.45195007 C160.48373787 109.1155316 124.65403683 107.01222081 88.32886887 106.38652039 C87.56845543 106.37318413 86.80804199 106.35984787 86.02458572 106.34610748 C42.17508473 105.57787884 -1.69359071 104.8769355 -45.54613113 105.76152039 C-47.17957977 105.79369659 -47.17957977 105.79369659 -48.84602737 105.82652283 C-146.17690877 107.78502448 -243.4967071 114.43116932 -342.67113113 128.38652039 C-343.60370743 128.51673584 -344.53628372 128.64695129 -345.4971199 128.78111267 C-410.66974712 137.88357429 -475.02594538 150.64144093 -538.67113113 167.38652039 C-539.44452835 167.5893866 -540.21792557 167.79225281 -541.01475906 168.00126648 C-561.44719675 173.37816426 -581.53592332 179.82956309 -601.61642075 186.38195419 C-603.51182042 187.00032655 -605.40760396 187.61752188 -607.30339432 188.23469543 C-627.8621126 194.94409618 -648.05967309 202.29048871 -667.98363113 210.69902039 C-668.95837387 211.10913864 -668.95837387 211.10913864 -669.95280838 211.52754211 C-681.71864573 216.48263884 -693.36459973 221.67394585 -704.92161942 227.09989929 C-707.61198634 228.35884386 -710.31046448 229.59873115 -713.01097488 230.83573914 C-725.38798258 236.55484972 -737.20399419 243.05671428 -749.00951004 249.86845398 C-751.40610049 251.23535908 -753.81671821 252.56592293 -756.24534988 253.87480164 C-774.64899097 263.79546579 -792.2973838 275.08881624 -808.79417801 287.93778992 C-811.47165407 290.00440581 -814.18972578 292.01488114 -816.90599442 294.03007507 C-828.17405894 302.4036638 -838.78522862 311.27386945 -849.03050613 320.86357117 C-850.65816174 322.37448124 -852.30151322 323.86587922 -853.95238113 325.35136414 C-860.42328764 331.16425924 -860.42328764 331.16425924 -866.29613113 337.57402039 C-867.07988113 338.50214539 -867.86363113 339.43027039 -868.67113113 340.38652039 C-869.33113113 340.38652039 -869.99113113 340.38652039 -870.67113113 340.38652039 C-870.91218582 340.9498407 -871.15324051 341.51316101 -871.40159988 342.09355164 C-872.93082348 344.85556472 -874.79682785 346.79416165 -876.98363113 349.07402039 C-891.24797729 364.5133199 -903.24426241 382.17827019 -913.67113113 400.38652039 C-914.03174637 401.00913757 -914.3923616 401.63175476 -914.76390457 402.27323914 C-930.53921668 429.77018926 -939.97296924 460.14711273 -944.67113113 491.38652039 C-944.84684647 492.50703796 -944.84684647 492.50703796 -945.0261116 493.65019226 C-948.20525752 514.52957558 -948.19883534 535.9481246 -942.67113113 556.38652039 C-942.44618973 557.22263855 -942.22124832 558.05875671 -941.98949051 558.92021179 C-940.37471293 564.79546657 -938.58534374 570.60232238 -936.67113113 576.38652039 C-936.44200027 577.0819696 -936.21286942 577.77741882 -935.9767952 578.49394226 C-925.7861674 608.8143878 -899.86290885 660.29063153 -869.67113113 675.38652039 C-869.67113113 676.04652039 -869.67113113 676.70652039 -869.67113113 677.38652039 C-869.12714676 677.6198407 -868.58316238 677.85316101 -868.02269363 678.09355164 C-863.94961853 680.33306635 -860.64050014 683.56171573 -857.13206863 686.58573914 C-820.78962751 716.7389756 -772.30668443 733.87187492 -725.35863113 733.76152039 C-724.48461655 733.76097656 -723.61060196 733.76043274 -722.71010208 733.75987244 C-701.70832692 733.70004855 -681.78781639 731.36450601 -661.92894363 724.1985321 C-659.62286912 723.36916318 -657.30527545 722.58128863 -654.98363113 721.79667664 C-623.39243875 710.90091894 -595.33635851 692.42343948 -571.50365067 669.17216492 C-569.80940335 667.52125567 -568.10006618 665.88786116 -566.38597488 664.25761414 C-559.04483781 657.19479745 -552.76962565 649.53328975 -546.67113113 641.38652039 C-545.97374832 640.47257507 -545.27636551 639.55862976 -544.55784988 638.61698914 C-538.75687977 630.862987 -533.6233011 622.70054587 -528.67113113 614.38652039 C-528.32050613 613.79951355 -527.96988113 613.21250671 -527.60863113 612.60771179 C-514.91728989 591.01136206 -506.95724096 566.47564457 -502.35863113 541.94902039 C-502.11910721 540.67248596 -502.11910721 540.67248596 -501.87474442 539.37016296 C-500.59163697 531.98839619 -500.21276462 524.96938921 -499.67113113 517.38652039 C-465.02113113 517.38652039 -430.37113113 517.38652039 -394.67113113 517.38652039 C-394.67113113 525.25257231 -394.90925027 532.36492447 -395.85863113 540.07402039 C-395.99172684 541.15562439 -396.12482254 542.23722839 -396.26195145 543.35160828 C-403.04424859 595.60336621 -421.96085563 645.91306895 -451.67113113 689.38652039 C-452.19916336 690.16076355 -452.72719559 690.93500671 -453.27122879 691.73271179 C-461.96105247 704.40795197 -471.29670813 716.11520047 -481.88743973 727.26200867 C-484.21952073 729.7207126 -486.45467967 732.09114448 -488.46019363 734.82792664 C-488.85980301 735.34226257 -489.25941238 735.85659851 -489.67113113 736.38652039 C-490.33113113 736.38652039 -490.99113113 736.38652039 -491.67113113 736.38652039 C-491.87738113 736.94339539 -492.08363113 737.50027039 -492.29613113 738.07402039 C-494.18153202 741.24492187 -496.82472472 743.07381517 -499.67113113 745.38652039 C-500.33113113 746.37652039 -500.99113113 747.36652039 -501.67113113 748.38652039 C-502.33113113 748.38652039 -502.99113113 748.38652039 -503.67113113 748.38652039 C-503.67113113 749.04652039 -503.67113113 749.70652039 -503.67113113 750.38652039 C-504.96409988 751.72636414 -504.96409988 751.72636414 -506.85863113 753.32402039 C-507.59726395 753.9492157 -508.33589676 754.57441101 -509.09691238 755.21855164 C-510.37115067 756.29169617 -510.37115067 756.29169617 -511.67113113 757.38652039 C-512.59281082 758.19476257 -513.51449051 759.00300476 -514.46409988 759.83573914 C-527.92930851 771.5874721 -542.64255336 781.65767857 -557.74730301 791.1726532 C-559.52507674 792.29436525 -561.29409572 793.42865655 -563.06175613 794.56620789 C-581.98392138 806.5440317 -602.73743993 814.66341101 -623.67113113 822.38652039 C-624.41314774 822.66528015 -625.15516434 822.94403992 -625.91966629 823.23124695 C-639.82628966 828.41371985 -656.80039935 834.38652039 -671.67113113 834.38652039 C-671.67113113 951.86652039 -671.67113113 1069.34652039 -671.67113113 1190.38652039 C-706.32113113 1190.38652039 -740.97113113 1190.38652039 -776.67113113 1190.38652039 C-776.67113113 1072.90652039 -776.67113113 955.42652039 -776.67113113 834.38652039 C-784.92113113 832.73652039 -793.17113113 831.08652039 -801.67113113 829.38652039 C-848.57617222 816.92736885 -891.80421948 794.65060128 -929.08519363 763.52714539 C-932.61460727 760.60551597 -936.23997712 757.81019261 -939.87034988 755.01542664 C-940.4646077 754.47788757 -941.05886551 753.94034851 -941.67113113 753.38652039 C-941.67113113 752.72652039 -941.67113113 752.06652039 -941.67113113 751.38652039 C-942.25145096 751.13144714 -942.83177078 750.8763739 -943.42967606 750.61357117 C-945.90378831 749.25915572 -947.54834116 747.75239773 -949.53441238 745.75370789 C-950.25693192 745.02925476 -950.97945145 744.30480164 -951.72386551 743.55839539 C-952.46958817 742.80042664 -953.21531082 742.04245789 -953.98363113 741.26152039 C-955.08481277 740.15937195 -955.08481277 740.15937195 -956.20824051 739.03495789 C-960.89392574 734.3118537 -965.36092061 729.45356266 -969.67113113 724.38652039 C-970.21455154 723.74988464 -970.75797195 723.1132489 -971.31785965 722.45732117 C-1013.72189263 672.41967975 -1039.06080352 615.72501678 -1050.67113113 551.38652039 C-1050.81953445 550.60051453 -1050.96793777 549.81450867 -1051.12083817 549.00468445 C-1062.41505659 487.85649253 -1041.97181885 415.02667112 -1013.61693192 361.1882782 C-1012.68085623 359.40504676 -1011.76639135 357.61201881 -1010.85472488 355.81620789 C-998.54400512 331.83876374 -982.9566479 309.99576461 -965.67113113 289.38652039 C-965.16195145 288.77824402 -964.65277176 288.16996765 -964.12816238 287.54325867 C-954.35822187 275.91162962 -944.13598528 264.77867857 -933.42113113 254.01152039 C-932.7717659 253.3574823 -932.12240067 252.70344421 -931.4533577 252.02958679 C-927.58493866 248.17393806 -923.60032491 244.50949222 -919.46605301 240.9407196 C-917.28364138 239.05099811 -915.16670458 237.09515913 -913.04613113 235.13652039 C-907.92715664 230.51293052 -902.54405228 226.2901304 -897.09691238 222.06620789 C-894.15052916 219.77701353 -891.28011501 217.40937783 -888.42113113 215.01152039 C-865.64709606 196.29952081 -840.26792839 180.37289069 -814.96409988 165.34355164 C-812.10608757 163.64501763 -809.26245329 161.92522395 -806.42113113 160.19902039 C-797.70381775 154.98292303 -788.70841384 150.34832267 -779.60863113 145.84355164 C-775.82560542 143.9687006 -772.05935998 142.0625051 -768.29613113 140.14823914 C-744.27374072 127.96470718 -719.70989313 117.31574661 -694.67113113 107.38652039 C-693.61200516 106.96467468 -692.55287918 106.54282898 -691.46165848 106.10820007 C-614.84736012 75.78195166 -534.49533083 54.89208049 -453.67113113 39.38652039 C-452.56287979 39.17380493 -451.45462845 38.96108948 -450.31279373 38.7419281 C-370.81265052 23.54996888 -290.35500834 13.58366778 -209.67113113 7.38652039 C-208.50928299 7.29648743 -207.34743484 7.20645447 -206.15037918 7.11369324 C-175.67674448 4.76285798 -145.18133185 3.02914247 -114.64378738 1.79277039 C-113.43818366 1.74379585 -113.43818366 1.74379585 -112.2082243 1.69383192 C-74.80401739 0.185518 -37.4303667 -0.09243522 0 0 Z " fill="#000000" transform="translate(1052.6711311340332,21.613479614257813)"/>
<path d="M0 0 C1.22315918 0.00563965 2.44631836 0.0112793 3.70654297 0.01708984 C31.95377016 0.39322299 59.74164366 9.24644995 80.3125 29.3125 C89.09240207 38.33131097 93.21483702 49.11662777 96.55859375 61.0390625 C99.12715945 69.96213797 102.14240831 78.70229222 105.24145508 87.45288086 C106.90768545 92.15917541 108.55877378 96.87078391 110.2109375 101.58203125 C110.55183411 102.55326935 110.89273071 103.52450745 111.24395752 104.525177 C114.83254163 114.7653179 118.32582349 125.03731269 121.8125 135.3125 C126.65933512 149.58751816 131.57487987 163.83608457 136.5625 178.0625 C142.84400372 195.98149173 148.9577771 213.95497689 155.03991699 231.94250488 C160.50930109 248.11297639 166.05305478 264.25384571 171.70697021 280.36065674 C177.22826697 296.09896059 182.59561216 311.88749622 187.9375 327.6875 C193.33611117 343.65387343 198.76275121 359.60730842 204.375 375.5 C204.77075226 376.6208046 204.77075226 376.6208046 205.17449951 377.76425171 C206.1911343 380.64243307 207.20818707 383.5204662 208.22589111 386.39826965 C214.79380954 404.98182718 221.11490418 423.65142768 227.45785522 442.31262207 C228.55801779 445.5493133 229.6585105 448.78589215 230.7590332 452.02246094 C233.99288903 461.5348051 237.22459444 471.04783877 240.44216919 480.56570435 C241.73684599 484.39331653 243.03488431 488.21978326 244.33361816 492.04602051 C244.94077028 493.83755196 245.54634092 495.62962021 246.15026855 497.42224121 C246.98033512 499.88572077 247.81570461 502.34734006 248.65234375 504.80859375 C248.89425949 505.53112839 249.13617523 506.25366302 249.38542175 506.99809265 C250.44446446 510.09737811 251.48269478 512.56779217 253.3125 515.3125 C261.94952279 490.72886667 270.44521366 466.10139589 278.79418945 441.418396 C283.36057049 427.92404379 287.98651789 414.46257876 292.84033203 401.06884766 C296.04551664 392.17806362 299.03437797 383.22269782 302 374.25 C306.3119568 361.20444162 310.75990101 348.21349162 315.3125 335.25 C319.72992805 322.67089227 324.08989444 310.07416824 328.36328125 297.4453125 C328.58067837 296.8029748 328.79807549 296.16063709 329.02206039 295.49883461 C331.38208224 288.52395821 333.73568606 281.54694809 336.08398438 274.56811523 C340.54017691 261.34777501 345.09569887 248.17111603 349.83784485 235.05055237 C352.68471158 227.15718505 355.37562966 219.21996298 358 211.25 C362.00218616 199.14300557 366.15602441 187.09557812 370.375 175.0625 C375.9580497 159.13196676 381.45156417 143.17308247 386.875 127.1875 C387.22971375 126.14212067 387.58442749 125.09674133 387.94989014 124.01968384 C389.36793374 119.83993384 390.78561569 115.66006148 392.20272827 111.47999573 C395.49470696 101.77060295 398.79782427 92.06503281 402.1088562 82.36212158 C402.68958114 80.65990008 403.2699418 78.95755424 403.84988403 77.25506592 C405.40833828 72.68006016 406.97259281 68.10713111 408.54693604 63.53756714 C409.07108027 62.01417239 409.59341288 60.49015346 410.11419678 58.96560669 C410.90541189 56.65227084 411.70381871 54.34153008 412.50390625 52.03125 C412.73857101 51.34103256 412.97323578 50.65081512 413.2150116 49.93968201 C419.68214813 31.39924065 434.90582428 19.62160608 451.93823242 11.1628418 C459.47903497 7.59180514 467.21772693 5.26159142 475.3125 3.3125 C476.58867188 2.9928125 477.86484375 2.673125 479.1796875 2.34375 C506.18644774 -3.74713635 536.46257995 -0.59819082 560.625 13.1875 C577.30155459 23.87264342 588.26992029 37.485748 592.66581404 57.02602327 C594.33362866 66.57526521 593.71019815 76.53203763 593.67326355 86.18562317 C593.67457275 88.72947129 593.67720127 91.27331902 593.68103105 93.8171646 C593.68632977 99.3350483 593.68236734 104.85280368 593.67011642 110.37067413 C593.65195091 118.57540817 593.6511146 126.78008124 593.65374239 134.98483172 C593.65767701 148.78900219 593.64768684 162.59312946 593.62969017 176.39728737 C593.61192356 190.06007921 593.60038919 203.72285305 593.59713173 217.38565636 C593.59692551 218.23597966 593.59671929 219.08630297 593.59650682 219.96239365 C593.59549179 224.28096475 593.59458765 228.59953586 593.5937262 232.918107 C593.58742925 263.48618838 593.56722915 294.05424629 593.53881836 324.62231445 C593.51125397 354.31404496 593.49000856 384.00576903 593.47729492 413.69750977 C593.47690034 414.61315026 593.47650576 415.52879075 593.47609923 416.47217792 C593.47214358 425.66763036 593.46831615 434.86308286 593.46458265 444.0585354 C593.45697453 462.78981232 593.44851078 481.52108881 593.43952942 500.25236511 C593.43911755 501.11355054 593.43870568 501.97473597 593.43828133 502.86201793 C593.41069125 560.34552229 593.3624709 617.8290114 593.3125 675.3125 C558.9925 675.3125 524.6725 675.3125 489.3125 675.3125 C488.9825 503.7125 488.6525 332.1125 488.3125 155.3125 C480.3925 178.7425 472.4725 202.1725 464.3125 226.3125 C456.5625 248.5625 456.5625 248.5625 453.078125 258.484375 C448.38196763 271.89018898 443.8587529 285.35532033 439.3125 298.8125 C433.2514123 316.75322728 427.13218822 334.67034829 420.85888672 352.53808594 C415.40070786 368.09285234 410.09267443 383.69649757 404.8125 399.3125 C398.86643559 416.89725344 392.85681181 434.45620544 386.71386719 451.97314453 C381.83367256 465.89296926 377.05099658 479.84383667 372.3125 493.8125 C365.72520674 513.22121951 359.046392 532.59568797 352.2502594 551.93229675 C350.15546019 557.8959753 348.0784298 563.86560846 346.00965881 569.83836365 C344.5055062 574.17455723 342.99211571 578.50749364 341.47702026 582.83987427 C340.75513667 584.9099296 340.03683984 586.98124004 339.32254028 589.05392456 C332.18246332 609.75634409 323.58680077 629.44287181 309.3125 646.3125 C308.83296875 646.92609375 308.3534375 647.5396875 307.859375 648.171875 C296.99700549 661.78105059 279.66116781 672.83053741 262.3125 675.3125 C240.61944879 676.73565235 222.06356533 672.72936348 205.39355469 658.11474609 C193.29376758 647.10118223 183.76421712 633.76292421 177.4921875 618.6640625 C177.14923645 617.84285416 176.8062854 617.02164581 176.45294189 616.17555237 C172.92339911 607.58303192 169.91785047 598.82906963 166.98446655 590.01858521 C165.38073707 585.20272533 163.75300016 580.39495944 162.12890625 575.5859375 C161.80505447 574.6249263 161.4812027 573.6639151 161.14753723 572.67378235 C157.76503916 562.65188398 154.24680342 552.67993433 150.69628906 542.71655273 C142.85796798 520.681869 135.35168722 498.53154565 127.87011719 476.3737793 C121.31924084 456.97933184 114.71077759 437.60758861 107.92764282 418.29290771 C102.2701418 402.17295257 96.78058397 385.99748296 91.3125 369.8125 C85.16018276 351.60271909 78.950283 333.41634317 72.58935547 315.27832031 C67.92615502 301.98002899 63.34406122 288.65621209 58.8125 275.3125 C53.94336812 260.97519098 49.00517541 246.66560201 44 232.375 C35.29842674 207.40219219 26.8168718 182.3531503 18.3125 157.3125 C17.9825 328.2525 17.6525 499.1925 17.3125 675.3125 C-17.3375 675.3125 -51.9875 675.3125 -87.6875 675.3125 C-87.72132327 617.76416252 -87.75358585 560.21582516 -87.77218628 502.66748047 C-87.77246239 501.81538843 -87.77273851 500.96329639 -87.77302299 500.08538339 C-87.77900917 481.56595221 -87.78454948 463.04652092 -87.78963066 444.52708948 C-87.79212527 435.44481744 -87.79471839 426.36254543 -87.79736328 417.28027344 C-87.7976248 416.37649091 -87.79788632 415.47270838 -87.79815576 414.54153851 C-87.80667443 385.26127433 -87.82169406 355.98101789 -87.84009444 326.7007584 C-87.85897299 296.60486045 -87.87127399 266.50896678 -87.87532998 236.413063 C-87.87590627 232.15965267 -87.87655754 227.90624235 -87.87725449 223.65283203 C-87.87738933 222.81572161 -87.87752418 221.97861118 -87.87766311 221.11613378 C-87.88002411 207.65530373 -87.88929368 194.19448692 -87.90116407 180.73366226 C-87.9129574 167.19231498 -87.91743124 153.65098079 -87.91450275 140.10962856 C-87.91298467 132.07011238 -87.9170096 124.03064425 -87.92909509 115.99113677 C-87.93751449 109.97806545 -87.93540277 103.96504523 -87.92929779 97.95196915 C-87.92845505 95.5263964 -87.93097211 93.10081955 -87.93726636 90.67525482 C-87.99803859 65.80147354 -87.09538324 43.29772513 -69.0625 24.125 C-50.55182314 6.42890528 -24.95572469 -0.12173524 0 0 Z " fill="#373737" transform="translate(1502.6875,536.6875)"/>
<path d="M0 0 C1.58895444 -0.00300118 3.17790816 -0.00640587 4.76686096 -0.01017761 C9.04724218 -0.01893648 13.32760334 -0.02135262 17.60799265 -0.0219934 C20.30291221 -0.02270993 22.99782687 -0.02485577 25.69274521 -0.02749062 C35.15535549 -0.0367259 44.61795177 -0.04082886 54.08056641 -0.04003906 C62.79726776 -0.03944271 71.51390635 -0.04991157 80.23059189 -0.06578273 C87.78891439 -0.07903672 95.34721687 -0.08421545 102.90555084 -0.08358365 C107.38564571 -0.0833333 111.86568504 -0.08591763 116.34576797 -0.0967617 C146.17903941 -0.16390934 176.27437533 0.04422272 205.83935547 4.45776367 C207.38538224 4.67895173 208.9314444 4.8998925 210.47753906 5.12060547 C245.21522902 10.16038664 279.69547862 18.62728572 310.86572266 35.20141602 C312.57774168 36.10609966 314.30594722 36.97994969 316.03466797 37.85229492 C327.63720588 43.82131141 337.94584317 51.23032001 347.47998047 60.12573242 C349.38390152 61.89610505 351.33076698 63.55912135 353.33935547 65.20776367 C357.20181478 68.51331024 360.43546279 72.21699334 363.65185547 76.14526367 C364.42658203 77.08241211 365.20130859 78.01956055 365.99951172 78.98510742 C372.60479881 87.15847263 377.82481215 95.82613347 382.65185547 105.14526367 C382.97283203 105.75595703 383.29380859 106.36665039 383.62451172 106.99584961 C407.61825486 153.2013738 406.50735053 214.55861437 391.63623047 263.25073242 C384.08682777 286.47236093 371.29740182 306.35853329 354.65185547 324.14526367 C355.16490234 324.43916992 355.67794922 324.73307617 356.20654297 325.03588867 C397.44597947 349.19636662 428.1662847 382.11782762 440.65185547 429.14526367 C447.91435033 458.04502445 448.66779762 488.6950212 444.65185547 518.14526367 C444.55533691 518.89001953 444.45881836 519.63477539 444.359375 520.40209961 C440.39907952 550.17259666 429.6879992 579.07969091 410.24560547 602.22729492 C408.49834558 604.26163 408.49834558 604.26163 406.65185547 607.14526367 C405.99185547 607.14526367 405.33185547 607.14526367 404.65185547 607.14526367 C404.39017578 607.73049805 404.12849609 608.31573242 403.85888672 608.91870117 C390.3985395 633.74846788 347.69922027 649.64827186 322.69873047 657.37573242 C306.4672504 662.19363967 290.09367906 665.58542581 273.40185547 668.33276367 C272.33871124 668.51394745 272.33871124 668.51394745 271.25408936 668.6987915 C240.12379785 673.94229069 208.58843742 674.59670084 177.10300076 674.49346054 C172.01226216 674.48022392 166.92153106 674.48490863 161.83078003 674.48716736 C153.05820612 674.48872307 144.28570032 674.47949501 135.51314354 674.46245384 C122.83028135 674.43783305 110.14745131 674.4302353 97.46456782 674.42648987 C76.87601819 674.41996108 56.28750468 674.40009814 35.69897461 674.37158203 C15.72632017 674.3439481 -4.24632438 674.32276052 -24.21899414 674.31005859 C-25.45485053 674.30927042 -26.69070691 674.30848225 -27.96401349 674.3076702 C-34.16535767 674.30375444 -40.36670192 674.29996347 -46.56804621 674.29623449 C-97.82810391 674.26525011 -149.08812244 674.2125132 -200.34814453 674.14526367 C-200.38240986 627.16867399 -200.41424733 580.19208334 -200.43283081 533.21548462 C-200.43324498 532.17119577 -200.43324498 532.17119577 -200.43366752 531.10581018 C-200.4396545 515.97263856 -200.44519469 500.83946681 -200.45027519 485.70629486 C-200.45276968 478.28409563 -200.45536281 470.86189644 -200.45800781 463.43969727 C-200.45826933 462.70113199 -200.45853085 461.96256671 -200.45880029 461.20162067 C-200.46731031 437.29849327 -200.48232342 413.39537537 -200.50073897 389.49225372 C-200.51964194 364.911599 -200.53192416 340.33094953 -200.53597451 315.75028766 C-200.53655075 312.27180456 -200.53720202 308.79332148 -200.53789902 305.31483841 C-200.53803386 304.63027908 -200.53816871 303.94571974 -200.53830764 303.24041619 C-200.54066342 292.25784512 -200.54991875 281.27529038 -200.5618086 270.29272594 C-200.57363691 259.22917471 -200.57790616 248.16563578 -200.57514729 237.10207753 C-200.57387124 231.11669579 -200.57577351 225.13136165 -200.58655548 219.14598846 C-200.59638014 213.65152331 -200.59672049 208.15713719 -200.58994232 202.66266818 C-200.58910618 200.68920613 -200.59156456 198.71573887 -200.5979109 196.74228685 C-200.65214516 178.81522919 -199.79960009 160.84537488 -196.03564453 143.27026367 C-195.81835693 142.22563965 -195.60106934 141.18101562 -195.37719727 140.10473633 C-193.55071882 131.57853747 -191.29750429 123.35372276 -188.34814453 115.14526367 C-187.92017578 113.93354492 -187.49220703 112.72182617 -187.05126953 111.47338867 C-181.59478696 96.94320475 -173.95598692 83.3360698 -164.34814453 71.14526367 C-163.72552734 70.33186523 -163.10291016 69.5184668 -162.46142578 68.68041992 C-133.41321281 31.38322152 -91.08098362 11.1718931 -45.09814453 3.39526367 C-43.85492432 3.18426025 -42.6117041 2.97325684 -41.33081055 2.75585938 C-27.58524966 0.53701246 -13.91029093 -0.00532512 0 0 Z M-36.34814453 100.27026367 C-37.09523682 100.56956787 -37.8423291 100.86887207 -38.61206055 101.17724609 C-60.37367533 110.2155501 -77.20239168 125.72770326 -87.34814453 147.14526367 C-96.13956664 168.73663197 -96.5026677 190.39564193 -96.44580078 213.28979492 C-96.44393237 215.51323922 -96.44251047 217.73668393 -96.44151306 219.96012878 C-96.43772117 225.77146571 -96.42791984 231.58277708 -96.41680908 237.394104 C-96.40652287 243.34045059 -96.40200009 249.28680136 -96.39697266 255.2331543 C-96.38629414 266.87053523 -96.36925837 278.50789731 -96.34814453 290.14526367 C-62.86984475 290.19117877 -29.39155289 290.22635241 4.08677146 290.24739433 C8.05150003 290.24989533 12.01622855 290.25248402 15.98095703 290.25512695 C16.77016511 290.25565157 17.55937319 290.25617619 18.37249666 290.25671671 C31.10181645 290.26538687 43.83111792 290.28113787 56.56042689 290.29956926 C69.65060529 290.31836316 82.74077419 290.32940031 95.83096552 290.33344066 C103.88908211 290.33616618 111.94714691 290.34473053 120.00524753 290.36109661 C126.21500355 290.37305566 132.4247212 290.37415137 138.63448715 290.37147903 C141.15934948 290.3720234 143.684214 290.37592209 146.20906448 290.38367462 C166.14899307 290.4418293 186.15103439 289.84661016 205.83935547 286.39526367 C207.30405273 286.14256714 207.30405273 286.14256714 208.79833984 285.88476562 C236.84131252 280.79778488 264.27796331 270.95829457 281.81591797 247.21557617 C283.53645431 244.57253949 285.12610217 241.90451329 286.65185547 239.14526367 C287.03728516 238.48268555 287.42271484 237.82010742 287.81982422 237.13745117 C295.37202176 223.30622349 297.04863692 207.54664916 297.02685547 192.08276367 C297.02597931 191.39995331 297.02510315 190.71714294 297.02420044 190.01364136 C296.91881581 165.07176097 290.09466395 144.15917766 272.71435547 125.83276367 C237.19301146 92.1187679 180.85016439 93.65198526 135.24273539 93.74228716 C130.09825109 93.75001779 124.95378078 93.74280326 119.80929565 93.73812866 C111.19477393 93.7327162 102.58033013 93.7397499 93.96582031 93.75415039 C84.04695263 93.77054114 74.12826941 93.76512374 64.20940602 93.74867117 C55.626901 93.73501344 47.04445112 93.73315536 38.46193874 93.74098718 C33.3640108 93.7456309 28.26616939 93.7463791 23.16824722 93.73637772 C18.38588891 93.72764469 13.60376707 93.73384426 8.82143402 93.75106049 C7.0797019 93.75498861 5.33794947 93.75395532 3.59622574 93.74727249 C-10.26482233 93.69903211 -23.36090981 94.98939861 -36.34814453 100.27026367 Z M-96.34814453 384.14526367 C-96.34814453 448.82526367 -96.34814453 513.50526367 -96.34814453 580.14526367 C-40.86768258 580.23275371 -40.86768258 580.23275371 14.61279297 580.29174805 C22.1163739 580.29762048 29.61995464 580.30368159 37.12353516 580.31005859 C38.53395289 580.31124546 38.53395289 580.31124546 39.97286391 580.31245631 C55.09595637 580.32545679 70.21901413 580.34908169 85.34208611 580.37672206 C100.89570983 580.40490942 116.44931557 580.4214679 132.00296378 580.42752916 C141.57813652 580.43161815 151.1532112 580.44446864 160.72835371 580.46901307 C167.32007001 580.48503544 173.91173663 580.48962734 180.50347093 580.4857678 C184.29020491 580.4838715 188.07676924 580.48649588 191.86347198 580.5028801 C236.23404909 580.68490816 286.71099696 577.99820651 320.52685547 545.64526367 C337.89133664 527.46877438 343.18516847 502.70695183 342.80029297 478.28588867 C342.08964389 453.28502103 333.85636626 431.36723131 315.65185547 414.14526367 C295.45974422 395.26515965 267.94250198 389.87273374 241.46435547 386.45776367 C240.54001709 386.33828369 239.61567871 386.21880371 238.66333008 386.09570312 C220.66444024 383.9318251 202.65260079 384.00290775 184.55495608 384.02919805 C180.77539688 384.03356556 176.99583909 384.03205171 173.21627808 384.03129578 C166.68714929 384.03077449 160.15803059 384.0338797 153.62890434 384.03953362 C144.18918697 384.04770258 134.74947442 384.05026934 125.3097539 384.05152161 C109.98994711 384.05370369 94.67014568 384.0603408 79.3503418 384.06982422 C64.47924831 384.07902023 49.6081563 384.08607885 34.73706055 384.09033203 C33.80920807 384.09060003 32.88135559 384.09086803 31.92538637 384.09114414 C24.66766757 384.09322388 17.40994875 384.0951807 10.15222991 384.09709871 C-25.34789983 384.10651179 -60.84801612 384.12663495 -96.34814453 384.14526367 Z " fill="#373737" transform="translate(2374.34814453125,537.854736328125)"/>
<path d="M0 0 C34.32 0 68.64 0 104 0 C104.33 98.01 104.66 196.02 105 297 C111.435 292.05 111.435 292.05 118 287 C121.35644068 284.75900802 124.68150229 282.58993328 128.125 280.5 C129.02114014 279.95303467 129.91728027 279.40606934 130.84057617 278.8425293 C205.67794836 233.64489473 299.35267667 224.05078616 383.6796875 244.59765625 C423.62952421 254.72355546 459.11661741 272.33746306 492 297 C492.33 198.99 492.66 100.98 493 0 C527.32 0 561.64 0 597 0 C597 222.42 597 444.84 597 674 C562.68 674 528.36 674 493 674 C492.95101563 662.67042969 492.90203125 651.34085938 492.8515625 639.66796875 C492.8161503 632.46288327 492.78025356 625.25780552 492.7421875 618.05273438 C492.68194225 606.63274955 492.62359696 595.2127791 492.578125 583.79272461 C492.54498771 575.47275613 492.50503997 567.15285167 492.45720994 558.83295423 C492.43215884 554.43537909 492.41031694 550.03784523 492.39665604 545.64021873 C492.40805541 514.53192058 492.40805541 514.53192058 487.875 483.8125 C487.55740723 482.39167114 487.55740723 482.39167114 487.23339844 480.94213867 C481.70735222 457.27768127 473.11080129 433.91245478 459 414 C458.28070312 412.97648437 457.56140625 411.95296875 456.8203125 410.8984375 C448.33695281 398.48069173 448.33695281 398.48069173 437 389 C437 388.34 437 387.68 437 387 C436.44957031 386.76410156 435.89914062 386.52820313 435.33203125 386.28515625 C432.41453454 384.67735656 430.18400217 382.64395213 427.6875 380.4375 C403.17477037 359.60713378 370.37907546 348.06071047 339 343 C338.31228516 342.88817383 337.62457031 342.77634766 336.91601562 342.66113281 C289.55999083 335.30958538 236.19732478 340.32228434 194 364 C192.78323028 364.65490745 191.56577712 365.30854663 190.34765625 365.9609375 C179.10131529 372.07739513 169.22293078 379.52404224 160.00732422 388.37036133 C158.01659663 390.26378738 156.27109249 391.86970379 153.78125 393.06640625 C151.41905687 394.30448555 151.12027743 395.60609917 150 398 C148.54889789 399.7322354 147.06511915 401.43725817 145.5625 403.125 C110.79139823 443.76895171 104.56874107 498.35442768 104.49388909 549.64157414 C104.48435215 554.03107556 104.45813987 558.42048096 104.43388367 562.80992126 C104.3906282 571.07869748 104.36183223 579.34745464 104.33856028 587.61630863 C104.30616127 598.82056744 104.25075775 610.02471279 104.19681454 621.2288847 C104.11271672 638.81922215 104.05877682 656.40951745 104 674 C69.68 674 35.36 674 0 674 C0 451.58 0 229.16 0 0 Z " fill="#373737" transform="translate(740,538)"/>
<path d="M0 0 C11.34885421 -0.11723966 22.59349119 0.19257176 33.91796875 0.91796875 C35.51745791 1.01664366 37.11697145 1.11492407 38.71650696 1.21284485 C42.98710674 1.47590564 47.25722854 1.74604367 51.5272522 2.01828003 C54.21339774 2.18914737 56.89964839 2.35826118 59.5859375 2.52685547 C146.0665946 7.9584345 232.46976928 14.40610572 318.46044922 25.30078125 C324.75476688 26.09738906 331.05123895 26.87644246 337.34765625 27.65625 C351.56741202 29.41925652 365.7845109 31.20292689 380 33 C381.62231537 33.20493073 381.62231537 33.20493073 383.27740479 33.41400146 C406.97512425 36.4106917 430.61670625 39.57168556 454.19580078 43.3972168 C458.53285493 44.08443196 462.87509721 44.73111875 467.21875 45.375 C479.7884163 47.24397989 492.33033235 49.2836819 504.875 51.3125 C509.88398208 52.12191656 514.89308723 52.93056486 519.90234375 53.73828125 C521.74237724 54.03498215 521.74237724 54.03498215 523.61958313 54.337677 C530.53586896 55.45038266 537.45454897 56.54418197 544.37890625 57.60546875 C565.16824439 60.79860815 585.84472977 64.47438385 606.52308655 68.32157898 C607.5325383 68.50936417 608.54199005 68.69714935 609.58203125 68.890625 C610.5763768 69.07563065 611.57072235 69.26063629 612.59519958 69.45124817 C620.80232351 70.9736025 629.02050624 72.41623484 637.25 73.8125 C647.64442048 75.57924243 658.00601227 77.47103369 668.35498047 79.48632812 C671.11204752 80.02176001 673.87029502 80.55070894 676.62890625 81.078125 C682.08224965 82.1211263 687.53399872 83.17223396 692.98535156 84.22558594 C695.87231822 84.7830379 698.75977539 85.3378859 701.64746094 85.89160156 C720.91576304 89.58796486 740.1573877 93.34418581 759.29931641 97.65380859 C766.17541958 99.19673449 773.06318473 100.59560244 779.99354553 101.86878967 C787.0306598 103.17097155 794.01392838 104.69852527 801 106.25 C802.39049014 106.55704569 803.78103521 106.86384269 805.17163086 107.17041016 C807.32220005 107.64456952 809.47272294 108.11892925 811.62303162 108.5942688 C816.35177563 109.63917903 821.08312245 110.67115518 825.81640625 111.6953125 C846.20742628 116.1122934 866.53651631 120.78032649 886.85876465 125.50262451 C889.96024195 126.22304919 893.06210061 126.94182123 896.1640625 127.66015625 C897.09943848 127.87679932 898.03481445 128.09344238 898.99853516 128.31665039 C900.15401855 128.58340576 901.30950195 128.85016113 902.5 129.125 C903.38319916 129.32958832 904.26639832 129.53417664 905.17636108 129.7449646 C910.72486734 131.02668257 916.27710808 132.28794626 921.83740234 133.51757812 C940.33085649 137.61791261 958.69732495 142.11979738 977.04156494 146.83935547 C982.64144786 148.27906757 988.24340056 149.71071011 993.84524155 151.1427803 C995.77164661 151.63597807 997.69749178 152.1313611 999.62332153 152.62680054 C1000.78419281 152.9244632 1001.94506409 153.22212585 1003.14111328 153.52880859 C1004.15569611 153.78971283 1005.17027893 154.05061707 1006.21560669 154.31942749 C1008.8006256 154.95126811 1011.38658628 155.50023663 1014 156 C1014.09796875 155.36835938 1014.1959375 154.73671875 1014.296875 154.0859375 C1015.61401008 146.20583625 1017.70070553 138.64571221 1020 131 C1030.81845573 133.57513773 1041.42227995 136.56786743 1052 140 C1050.50307273 148.81538503 1047.97494669 157.29808798 1045.4296875 165.8515625 C1044.98376028 167.36173455 1044.53822035 168.872021 1044.0930481 170.38241577 C1042.92969028 174.32571066 1041.76113484 178.26744603 1040.59143066 182.2088623 C1039.39500453 186.24376816 1038.20358269 190.28015092 1037.01171875 194.31640625 C1034.67933011 202.21237827 1032.34143958 210.1067072 1030 218 C1023.26759424 216.76882648 1016.77313157 215.15980949 1010.234375 213.1484375 C1008.25476744 212.55043619 1006.27502313 211.95288747 1004.29516602 211.35571289 C1003.23741974 211.0352298 1002.17967346 210.7147467 1001.08987427 210.384552 C940.82212155 192.16727029 879.97702428 175.73229559 819.13144684 159.56642151 C816.92288026 158.97950581 814.71445189 158.39207222 812.50604248 157.80456543 C736.95509452 137.71040772 661.18057306 118.56633772 585 101 C583.90271576 100.74697868 583.90271576 100.74697868 582.78326416 100.48884583 C537.07722691 89.9556755 491.26444029 79.94801917 445.32607269 70.47945404 C443.76872868 70.15845166 442.21142205 69.83726788 440.65415192 69.51590729 C359.77640829 52.82630987 278.54097335 37.98679706 0 1 C0 0.67 0 0.34 0 0 Z " fill="#373737" transform="translate(1200,129)"/>
</svg>
